<?xml version="1.0" encoding="utf-8" ?><svg xmlns="http://www.w3.org/2000/svg" xmlns:xlink="http://www.w3.org/1999/xlink" width="600" height="300" viewBox="0 0 600 300"><path fill="#030B15" transform="scale(0.292969 0.292969)" d="M0 0L309.226 0L622.59 0L2048 0L2048 559.005L2048 824.835L2048 1024L1811.61 1024L1536.08 1024L137.542 1024L0 1024L0 743.228L0 0Z"/><defs><linearGradient id="gradient_0" gradientUnits="userSpaceOnUse" x1="366.14874" y1="992.67706" x2="251.50034" y2="10.176421"><stop offset="0" stop-color="#032A78"/><stop offset="1" stop-color="#0846C5"/></linearGradient></defs><path fill="url(#gradient_0)" transform="scale(0.292969 0.292969)" d="M0 0L309.226 0L622.59 0C622.642 60.7132 621.647 121.709 622.372 182.368C622.793 217.585 619.189 251.434 618.959 285.545C618.38 288.506 617.837 291.556 617.567 294.562C614.606 327.579 608.98 359.731 602.995 392.324C552.567 637.779 405.861 852.781 195.693 989.238C183.194 997.472 170.972 1004.41 157.989 1011.77C153.877 1014.1 140.277 1021.61 137.542 1024L0 1024L0 743.228L0 0Z"/><path fill="#030B15" transform="scale(0.292969 0.292969)" d="M0 0L309.226 0L309.274 157.067C309.24 193.537 310.05 233.382 306.606 269.462C292.628 415.874 232.614 540.368 128.966 643.961C90.3 682.316 46.9726 715.665 0 743.228L0 0Z"/><path fill="#115CEF" transform="scale(0.292969 0.292969)" d="M72.069 116.23C53.4599 105.128 44.2765 85.0322 56.4792 65.2835C61.367 57.3758 69.2426 51.7786 78.3177 49.7627C85.634 48.1435 96.0109 50.1771 102.243 54.1146C106.413 56.8217 110.805 61.2852 113.723 65.2936C118.311 73.2089 116.993 77.2448 120.055 85.5507C121.366 89.1061 126.131 92.6741 127.118 94.4525C141.84 100.66 183.67 88.1722 188.305 103.366C188.053 103.661 187.801 103.957 187.549 104.252L187.116 104.722C183.147 109.155 178.281 109.661 172.558 109.602C149.757 109.367 106.938 115.962 106.021 82.4863C102.904 72.3005 102.507 71.5927 94.1006 65.1834C87.2914 63.2129 81.5794 62.9579 75.144 66.6248C70.479 69.2631 67.091 73.6891 65.7621 78.8811C63.002 89.5616 68.1814 97.2452 76.4644 103.235C87.2411 103.721 104.486 107.636 91.5154 124.88C88.6206 128.729 76.5223 128.282 69.0164 135.716L67.0049 134.558C66.7365 131.897 66.8684 129.836 66.9598 127.188L65.6306 126.352C63.0201 127.927 62.0633 128.928 59.9101 130.968L58.7059 130.495L58.0782 127.721C61.3999 122.456 66.8909 119.439 72.069 116.23Z"/><path fill="#1168F3" transform="scale(0.292969 0.292969)" d="M127.118 94.4525C141.84 100.66 183.67 88.1722 188.305 103.366C184.805 103.846 183.146 103.535 179.793 102.443C169.575 99.1126 129.545 104.78 123.899 96.848L124.147 95.4014L127.118 94.4525Z"/><path fill="#115CEF" transform="scale(0.292969 0.292969)" d="M106.582 146.189C106.147 139.216 107.372 131.753 111.237 125.562C112.141 124.115 113.671 122.998 116.055 123.078C136.76 123.769 157.814 122.802 178.433 124.02C179.507 124.854 180.378 125.53 181.048 126.05C184.963 129.774 186.777 130.704 186.077 136.264C179.457 145.649 136.673 137.038 128.504 140.989C112.826 148.572 120.16 174.59 94.4245 180.234C60.745 187.62 40.7603 155.205 58.0782 127.721L58.7059 130.495L59.9101 130.968C62.0633 128.928 63.0201 127.927 65.6306 126.352L66.9598 127.188C66.8684 129.836 66.7365 131.897 67.0049 134.558L69.0164 135.716C65.6713 142.071 63.6537 146.874 65.8098 154.194C67.2596 159.11 70.6698 163.213 75.2385 165.538C80.1178 168.027 85.7924 168.452 90.9878 166.716C100.785 163.471 104.084 155.272 106.582 146.189Z"/><path fill="#06071F" transform="scale(0.292969 0.292969)" d="M106.582 146.189C106.147 139.216 107.372 131.753 111.237 125.562C112.141 124.115 113.671 122.998 116.055 123.078C136.76 123.769 157.814 122.802 178.433 124.02C179.507 124.854 180.378 125.53 181.048 126.05C152.772 127.809 120.905 116.666 106.582 146.189Z"/><path fill="#0841B7" transform="scale(0.292969 0.292969)" d="M455.763 433.358C462.419 432.249 471.451 432.421 478.201 432.97C480.398 433.148 486.351 433.652 487.635 435.809C491.502 442.31 486.46 545.054 489.508 564.311C490.061 567.802 491.558 570.304 493.27 573.213C494.413 575.154 493.119 577.227 492.396 579.062C491.646 578.207 490.74 577.175 489.678 575.964C478.631 575.85 465.242 580.521 455.484 574.303C453.894 564.548 454.048 440.138 455.763 433.358Z"/><path fill="#FEFEFE" transform="scale(0.292969 0.292969)" d="M458.281 436.012C467.148 436.369 476.722 436.183 485.647 436.172C484.92 452.821 485.428 472.033 485.457 488.985L485.243 573.049L458.241 573.012C458.996 559.367 458.387 540.597 458.339 526.545C458.139 496.368 458.12 466.189 458.281 436.012Z"/><path fill="#0841B7" transform="scale(0.292969 0.292969)" d="M1963.22 579.92C1977.7 575.721 2033.51 560.134 2048 559.005L2048 824.835L2048 1024L1811.61 1024L1536.08 1024C1563.65 936.214 1589.07 883.811 1642.51 807.992C1665.02 778.646 1691.16 749.225 1717.88 723.633C1730.02 712.002 1745.56 700.825 1757.11 689.318C1760.41 688.03 1789.15 665.998 1794.49 662.379C1811.75 650.897 1829.51 640.178 1847.71 630.255C1875.65 615.32 1899.87 602.998 1929.64 591.264C1939.84 587.246 1954.17 584.394 1963.22 579.92Z"/><path fill="#030B15" transform="scale(0.292969 0.292969)" d="M1811.61 1024C1813.44 1020.43 1815.42 1016.94 1817.54 1013.53C1863.8 937.714 1919.34 886.909 1998.55 845.25C2012.14 838.1 2033.51 828.34 2048 824.835L2048 1024L1811.61 1024Z"/><path fill="#06071F" transform="scale(0.292969 0.292969)" d="M1642.51 807.992C1642.39 806.157 1642.19 802.469 1643.32 800.815C1653.48 785.897 1664.34 770.608 1675.36 756.344C1677.26 753.879 1685.76 749.55 1687.65 745.744C1689.25 742.509 1686.28 744.223 1687.42 738.999C1690.66 735.573 1697.2 737.587 1700.52 734.774C1708.53 727.981 1705.74 721.356 1717.33 718.533C1719.04 718.116 1723.91 707.456 1727.3 706.167C1736.02 702.848 1748.37 688.857 1757.11 689.318C1745.56 700.825 1730.02 712.002 1717.88 723.633C1691.16 749.225 1665.02 778.646 1642.51 807.992Z"/><path fill="#06071F" transform="scale(0.292969 0.292969)" d="M1847.71 630.255C1848.5 622.518 1876.03 606.437 1883.7 605.481C1886.08 605.185 1890.49 598.63 1892.27 596.433C1899.13 593.052 1904.72 594.999 1910.24 593.254C1917.51 591.611 1929.06 582.97 1935.51 581.576C1941.15 580.357 1957.67 579.279 1963.22 579.92C1954.17 584.394 1939.84 587.246 1929.64 591.264C1899.87 602.998 1875.65 615.32 1847.71 630.255Z"/><path fill="#06071F" transform="scale(0.292969 0.292969)" d="M602.995 392.324C608.98 359.731 614.606 327.579 617.567 294.562C617.837 291.556 618.38 288.506 618.959 285.545C619.937 294.453 619.141 301.572 619.297 310.273C619.379 314.864 625.347 318.156 623.767 324.061C619.553 327.083 618.263 326.843 616.813 331.061C617.607 335.078 620.179 339.631 617.307 342.855C617.245 342.924 614.73 346.502 614.74 346.356C613.974 357.27 613.079 386.075 602.995 392.324Z"/><path fill="#0592F3" transform="scale(0.292969 0.292969)" d="M650.631 436.035C661.334 436.591 669.403 436.358 680.037 435.964C683.16 447.363 690.798 462.979 695.153 474.248C707.515 506.236 724.644 539.361 736.925 570.825C732.463 573.756 713.017 572.428 706.706 572.275L694.28 540.934L684.25 540.805C667.771 540.86 650.761 541.136 634.348 540.377C629.868 550.993 625.827 561.505 621.176 572.293C612.3 571.968 602.797 572.129 593.87 572.122C595.558 566.147 602.161 551.419 604.828 545.113L626.485 493.855C630.803 483.497 646.268 442.989 650.631 436.035Z"/><path fill="#030B15" transform="scale(0.292969 0.292969)" d="M663.791 466.309L665.239 466.888C667.073 468.886 683.842 513.02 686.417 519.39C680.64 520.002 673.216 519.96 667.25 520.079L641.362 520.2C644.774 512.02 648.883 503.994 652.249 495.51C655.986 486.093 659.528 475.317 663.791 466.309Z"/><path fill="#FEFEFE" transform="scale(0.292969 0.292969)" d="M1313.61 436.056L1418.55 436.149L1418.5 458.214L1340.57 458.623C1340.56 470.122 1340.43 481.621 1340.18 493.118C1363.74 493.041 1387.3 493.088 1410.86 493.258L1410.81 514.923L1350.5 515.011C1346.61 514.91 1345.01 514.782 1341.22 515.604C1340.38 518.675 1340.25 546.859 1340.17 551.993C1367.43 552.184 1394.69 552.035 1421.95 551.544L1421.86 573.922L1313.84 574.025L1313.61 436.056Z"/><path fill="#FEFEFE" transform="scale(0.292969 0.292969)" d="M1166.9 436.179L1194.75 436.248L1194.58 507.294C1216.3 483.897 1240.13 460.257 1261.14 436.487C1271.37 436.034 1282.45 436.371 1292.75 436.494C1287.58 443.236 1277.37 453.126 1271.13 459.459C1257.88 472.894 1244.51 486.215 1231.04 499.419C1240.66 509.628 1250.86 522.446 1259.94 533.387C1271.63 546.581 1282.94 560.104 1293.86 573.94L1259.34 574.052C1246.08 559.424 1227.33 534.576 1214.03 518.237L1194.53 537.888L1194.85 573.839L1166.98 573.791L1166.9 436.179Z"/><path fill="#FEFEFE" transform="scale(0.292969 0.292969)" d="M1082.37 434.37C1106.51 433.937 1122.03 441.097 1139.73 456.718C1133.62 462.613 1127.26 468.238 1120.66 473.577C1101.85 456.754 1075.92 450.563 1054.98 467.886C1045.34 475.954 1039.28 487.515 1038.15 500.037C1033.92 545.797 1083.17 570.116 1119.27 537.8L1119.99 537.257C1123.34 537.181 1136.29 548.828 1139.98 551.846C1126.85 565.779 1109.02 574.337 1089.95 575.859C993.151 583.942 975.012 442.012 1082.37 434.37Z"/><path fill="#FEFEFE" transform="scale(0.292969 0.292969)" d="M1435.09 436.151L1555.26 436.083L1555.22 458.409L1508 458.512L1508.04 528.5L1508.01 573.928L1479.63 573.82C1479.37 535.282 1479.44 496.743 1479.84 458.206L1435.06 458.58L1435.09 436.151Z"/><path fill="#FEFEFE" transform="scale(0.292969 0.292969)" d="M808.838 435.78C846.353 436.933 888.236 436.016 926.082 436.012L925.973 458.236C911.52 458.343 897.066 458.233 882.617 457.904L882.573 528.75L882.708 573.453C873.548 573.654 864.071 573.566 854.883 573.604C855.51 535.635 854.993 496.198 855.028 458.109L808.839 458.453L808.838 435.78Z"/><path fill="#FEFEFE" transform="scale(0.292969 0.292969)" d="M949.978 436.096L978.339 436.03L978.585 573.809C969.807 574.132 959.028 573.815 950.09 573.802L949.978 436.096Z"/><path fill="#06071F" transform="scale(0.292969 0.292969)" d="M1987.46 141.545C1989.94 141.922 1990.21 142.085 1992.27 143.536C1996.33 151.614 1994.43 163.302 1985.25 164.49C1976.29 164.959 1969.13 164.418 1974.02 152.296C1976.28 146.715 1980.29 149.618 1985.39 148.068C1986.04 145.538 1986.56 143.991 1987.46 141.545Z"/><path fill="#06071F" transform="scale(0.292969 0.292969)" d="M744.765 566.968C746.767 566.214 749.001 567.227 749.754 569.23C750.506 571.232 749.491 573.466 747.488 574.216C745.486 574.966 743.256 573.953 742.505 571.952C741.754 569.952 742.765 567.721 744.765 566.968Z"/></svg>